# xmcd
#
# Track frame offsets:
#	150
#	26352
#	48999
#	62395
#	79903
#	97226
#	114978
#	132907
#	156308
#	168158
#	189557
#	211504
#
# Disc length: 3170 seconds
#
# Revision: 1
# Processed by: cddbd v1.5.2PL0 Copyright (c) Steve Scherf et al.
# Submitted via: EZCDAudioConverter 7.1.6.1
#
DISCID=940c600c
DTITLE=Dave Alvin and Jimmie Dale Gilmore - Downey To Lubbock
DYEAR=2018
DGENRE=Country
TTITLE0=Downey To Lubbock
TTITLE1=Silverlake
TTITLE2=Stealin', Stealin'
TTITLE3=July, You're A Woman
TTITLE4=Buddy Brown's Blues
TTITLE5=The Gardens
TTITLE6=Get Together
TTITLE7=K.C. Moan
TTITLE8=Lawdy Miss Clawdy
TTITLE9=Billy The Kid And Gerinimo
TTITLE10=Deportee(Plane Wreck At Los Gatos)
TTITLE11=Walk On
EXTD=
EXTT0=
EXTT1=
EXTT2=
EXTT3=
EXTT4=
EXTT5=
EXTT6=
EXTT7=
EXTT8=
EXTT9=
EXTT10=
EXTT11=
PLAYORDER=
